<svg id="svg" version="1.1" xmlns="http://www.w3.org/2000/svg" xmlns:xlink="http://www.w3.org/1999/xlink" width="400" height="303.25765054294175" viewBox="0, 0, 400,303.25765054294175"><g id="svgg"><path id="path0" d="M18.660 0.492 C 16.899 2.710,16.615 11.270,18.196 14.460 L 19.151 16.387 28.825 16.650 C 50.863 17.249,53.307 20.528,51.143 46.594 C 50.456 54.871,31.403 247.110,30.793 251.925 C 28.161 272.684,20.751 281.304,3.159 284.069 L 0.197 284.535 0.091 292.711 L -0.016 300.888 45.353 300.888 C 82.496 300.888,90.801 300.794,91.156 300.366 C 93.974 296.971,92.784 285.413,89.569 284.954 C 80.976 283.728,78.640 283.276,75.429 282.218 C 62.115 277.834,57.617 267.851,59.630 247.156 C 60.099 242.335,71.866 72.378,71.866 70.425 C 71.866 69.313,72.008 69.103,72.754 69.111 C 73.567 69.120,77.566 78.955,119.642 184.428 C 167.900 305.396,165.862 300.515,168.992 302.606 C 169.762 303.120,170.955 303.258,174.642 303.258 L 179.315 303.258 181.074 301.579 C 182.775 299.956,184.537 295.885,235.406 176.111 C 290.209 47.072,288.149 51.887,288.425 52.163 C 288.971 52.709,300.629 253.608,300.659 262.981 C 300.720 282.308,298.244 284.688,278.063 284.696 L 270.834 284.699 269.975 286.575 C 268.810 289.120,268.725 296.161,269.825 299.013 L 270.549 300.888 335.283 300.888 L 400.016 300.888 399.909 292.892 L 399.803 284.896 391.115 284.655 C 369.527 284.055,366.056 279.922,364.287 252.715 C 364.153 250.652,360.762 202.563,356.750 145.851 C 352.739 89.139,349.458 40.630,349.460 38.053 C 349.470 21.853,354.796 17.377,374.926 16.645 L 382.034 16.387 382.823 14.808 C 383.904 12.646,383.983 3.779,382.942 1.481 L 382.271 0.000 335.139 -0.000 L 288.007 -0.000 243.945 103.356 C 204.138 196.732,199.793 206.724,198.954 206.828 C 198.070 206.938,196.066 202.064,156.505 103.570 L 114.985 0.197 67.019 0.097 C 28.941 0.018,18.972 0.099,18.660 0.492 " stroke="none" fill="#000000" fill-rule="evenodd"></path></g></svg>