<svg id="svg" version="1.1" xmlns="http://www.w3.org/2000/svg" xmlns:xlink="http://www.w3.org/1999/xlink" width="400" height="482.2605965463108" viewBox="0, 0, 400,482.2605965463108"><g id="svgg"><path id="path0" d="M362.951 1.183 C 357.557 2.096,340.030 2.181,179.786 2.076 L 2.587 1.960 1.450 4.904 C -0.302 9.446,-0.160 21.244,1.696 25.275 L 3.069 28.257 12.415 28.257 C 51.429 28.257,62.163 35.988,66.413 67.147 C 67.642 76.159,68.393 374.246,67.247 398.116 C 65.113 442.554,53.943 454.631,14.978 454.631 L 6.376 454.631 4.493 456.514 C -0.224 461.231,-0.443 473.749,4.106 478.655 L 5.702 480.377 123.384 480.377 L 241.066 480.377 242.581 478.336 C 246.764 472.702,246.635 462.182,242.318 456.945 L 240.544 454.792 228.121 454.459 C 192.350 453.498,178.993 443.447,173.215 413.141 C 171.868 406.075,171.844 404.843,171.605 332.339 L 171.362 258.713 198.554 258.732 C 249.831 258.769,263.173 260.141,276.895 266.786 C 288.720 272.513,296.145 285.055,297.442 301.495 C 297.817 306.249,297.838 306.296,300.087 307.373 C 305.621 310.025,321.749 310.073,328.011 307.456 L 330.347 306.480 329.852 290.603 C 329.214 270.172,329.213 211.355,329.849 191.657 L 330.341 176.406 328.170 175.499 C 321.994 172.918,305.655 173.003,300.254 175.644 L 297.959 176.766 297.528 181.971 C 295.612 205.087,287.540 216.387,269.651 220.998 C 259.740 223.553,257.434 223.676,213.956 223.976 L 171.396 224.268 171.570 143.688 L 171.743 63.108 173.211 58.713 C 177.364 46.280,185.502 37.552,195.429 34.882 C 201.348 33.290,278.680 33.727,287.284 35.401 C 319.363 41.643,335.214 59.321,351.650 107.185 L 354.926 116.724 358.380 117.156 C 368.655 118.440,387.281 114.886,386.992 111.697 C 386.917 110.876,386.424 105.576,385.896 99.918 C 385.368 94.261,383.666 71.655,382.114 49.683 C 379.347 10.514,378.920 5.212,378.253 1.727 C 377.850 -0.377,373.154 -0.544,362.951 1.183 " stroke="none" fill="#000000" fill-rule="evenodd"></path></g></svg>